<svg xmlns="http://www.w3.org/2000/svg" width="1400" height="900" viewBox="0 0 1400 900">
  <defs>
    <linearGradient id="g" x1="0" y1="0" x2="1" y2="1">
      <stop offset="0" stop-color="#3b82f6" stop-opacity="0.75"/>
      <stop offset="0.55" stop-color="#0b0f17" stop-opacity="0.95"/>
      <stop offset="1" stop-color="#0b0f17" stop-opacity="1"/>
    </linearGradient>
    <radialGradient id="r" cx="35%" cy="30%" r="70%">
      <stop offset="0" stop-color="#60a5fa" stop-opacity="0.55"/>
      <stop offset="1" stop-color="#0b0f17" stop-opacity="0"/>
    </radialGradient>
  </defs>

  <rect width="1400" height="900" fill="#0b0f17"/>
  <rect width="1400" height="900" fill="url(#g)"/>
  <rect width="1400" height="900" fill="url(#r)"/>

  <!-- subtle grid -->
  <g opacity="0.12" stroke="#e5e7eb" stroke-width="1">
    <path d="M0 110 H1400"/>
    <path d="M0 220 H1400"/>
    <path d="M0 330 H1400"/>
    <path d="M0 440 H1400"/>
    <path d="M0 550 H1400"/>
    <path d="M0 660 H1400"/>
    <path d="M0 770 H1400"/>
    <path d="M140 0 V900"/>
    <path d="M280 0 V900"/>
    <path d="M420 0 V900"/>
    <path d="M560 0 V900"/>
    <path d="M700 0 V900"/>
    <path d="M840 0 V900"/>
    <path d="M980 0 V900"/>
    <path d="M1120 0 V900"/>
    <path d="M1260 0 V900"/>
  </g>

  <!-- placeholder headline -->
  <g font-family="ui-sans-serif, system-ui, -apple-system, Segoe UI, Roboto, Helvetica, Arial" fill="#e5e7eb">
    <text x="90" y="530" font-size="56" font-weight="700">HERO IMAGE PLACEHOLDER</text>
    <text x="90" y="590" font-size="22" opacity="0.8">Replace with a photo of you or Kentucky scenery</text>
  </g>
</svg>
